<svg width="158" height="30" viewBox="0 0 158 30" fill="none" xmlns="http://www.w3.org/2000/svg">
<g id="logos:monday" clip-path="url(#clip0_2_102)">
<g id="Group">
<path id="Vector" d="M3.90049 22.5682C3.32253 22.5694 2.7546 22.4172 2.25471 22.1271C1.75483 21.837 1.34091 21.4194 1.05524 20.917C0.773889 20.4181 0.633552 19.8521 0.649259 19.2796C0.664966 18.7071 0.836124 18.1496 1.1444 17.667L7.00404 8.46569C7.30391 7.97115 7.72967 7.56506 8.23784 7.2889C8.74601 7.01274 9.31838 6.87642 9.89647 6.89385C10.4742 6.90768 11.0378 7.07475 11.5297 7.37796C12.0216 7.68117 12.4241 8.10964 12.6961 8.61951C12.9639 9.12543 13.089 9.69472 13.058 10.2663C13.027 10.838 12.841 11.3904 12.5199 11.8643L6.66393 21.0665C6.36693 21.5292 5.9579 21.9095 5.47477 22.1721C4.99164 22.4346 4.45004 22.571 3.90018 22.5685L3.90049 22.5682Z" fill="#F62B54"/>
<path id="Vector_2" d="M13.951 22.5681C12.7692 22.5681 11.6818 21.9363 11.1107 20.9205C10.83 20.423 10.6901 19.8585 10.7058 19.2876C10.7216 18.7166 10.8925 18.1607 11.2002 17.6794L17.0485 8.49899C17.3439 7.99746 17.7681 7.58411 18.2772 7.3018C18.7862 7.01948 19.3615 6.87849 19.9433 6.89344C21.1353 6.91979 22.2153 7.58652 22.7616 8.62921C23.0282 9.13991 23.1494 9.71399 23.1122 10.2889C23.0749 10.8637 22.8805 11.4173 22.5502 11.8893L16.7035 21.0694C16.4074 21.5302 16 21.909 15.519 22.1709C15.038 22.4327 14.4987 22.5692 13.951 22.5678V22.5681Z" fill="#FFCC00"/>
<path id="Vector_3" d="M23.777 22.645C25.4432 22.645 26.7939 21.3227 26.7939 19.6916C26.7939 18.0604 25.4432 16.7382 23.777 16.7382C22.1109 16.7382 20.7602 18.0604 20.7602 19.6916C20.7602 21.3227 22.1109 22.645 23.777 22.645Z" fill="#00CA72"/>
</g>
<path id="Vector_4" d="M154.83 16.9097C155.742 16.9097 156.286 17.5578 156.286 18.6191V22.2564H157.524V18.5358C157.524 16.7311 156.674 15.6844 155.075 15.6844C154.449 15.6844 153.456 15.8557 152.864 17.0065C152.726 16.6671 152.499 16.3712 152.207 16.1504C151.915 15.9295 151.568 15.792 151.204 15.7524C150.975 15.7105 150.741 15.6968 150.509 15.7117C150 15.7524 149.094 16.0693 148.755 16.7866V15.822H147.516V22.2564H148.755V18.7843C148.755 17.4334 149.639 16.9097 150.524 16.9097C151.353 16.9097 151.898 17.544 151.898 18.6054V22.2564H153.13V18.7843C153.13 17.7088 153.775 16.8972 154.83 16.9097H154.83ZM142.968 21.1813C143.249 21.187 143.528 21.1347 143.788 21.0274C144.047 20.9201 144.282 20.7604 144.477 20.5581C144.673 20.3543 144.827 20.1129 144.928 19.8483C145.029 19.5838 145.075 19.3016 145.064 19.0187C145.064 17.7226 144.111 16.9097 142.968 16.9097C141.825 16.9097 140.873 17.7226 140.873 19.0187C140.861 19.3008 140.907 19.5823 141.008 19.8462C141.108 20.1101 141.26 20.351 141.456 20.5544C141.65 20.7565 141.884 20.9165 142.142 21.0244C142.401 21.1322 142.679 21.1856 142.959 21.1813H142.968ZM142.968 22.3879C141.158 22.3879 139.648 21.0511 139.648 19.0113C139.648 16.9716 141.158 15.6768 142.968 15.6768C144.778 15.6768 146.302 16.9716 146.302 19.0113C146.302 21.0511 144.77 22.394 142.96 22.394L142.968 22.3879ZM133.273 19.0113L133.261 19.0187C133.261 16.979 134.811 15.6844 136.633 15.6768C137.091 15.6679 137.546 15.7553 137.968 15.9332C138.389 16.1111 138.769 16.3756 139.083 16.7096L138.144 17.5094C137.945 17.3136 137.709 17.1593 137.449 17.0552C137.19 16.9512 136.913 16.8996 136.634 16.9033C135.491 16.9033 134.498 17.7165 134.498 19.0113C134.498 19.8864 135.018 20.6751 135.817 21.01C136.207 21.1735 136.637 21.2162 137.052 21.1326C137.467 21.049 137.848 20.8429 138.144 20.5409L139.096 21.3403C138.782 21.6778 138.401 21.9455 137.976 22.126C137.552 22.3065 137.094 22.3959 136.633 22.3882C134.825 22.3882 133.273 21.0511 133.273 19.0113ZM129.309 21.0213C129.306 20.7942 129.394 20.5753 129.553 20.4128C129.712 20.2503 129.928 20.1575 130.156 20.1548C130.383 20.1575 130.6 20.2503 130.758 20.4128C130.917 20.5753 131.005 20.7942 131.002 21.0213C130.991 21.2391 130.897 21.4445 130.74 21.5955C130.583 21.7466 130.374 21.8319 130.156 21.8342C129.938 21.8319 129.729 21.7466 129.571 21.5955C129.414 21.4445 129.32 21.2391 129.309 21.0213ZM132.696 7.64228H128.287L125.197 15.6087L122.124 7.64228H117.715L123.074 20.2305L119.741 28.553H124.117L132.696 7.64228ZM105.885 14.6439C105.885 16.6551 107.643 17.9785 109.37 17.9785C111.067 17.9785 112.734 16.7467 112.734 14.6427C112.734 12.5386 111.067 11.3059 109.37 11.3059C107.643 11.3059 105.885 12.6305 105.885 14.6427V14.6439ZM112.734 21.6728V20.0801C111.841 21.4335 109.755 21.9448 108.685 21.9448C105.142 21.9448 101.598 19.1517 101.598 14.6427C101.598 10.1352 105.141 7.3417 108.685 7.3417C109.578 7.3417 111.663 7.63983 112.734 9.20402V7.64749H116.844V21.6755L112.735 21.6743V21.6731L112.734 21.6728ZM100.428 21.6728H96.3193V19.9299C95.6326 21.2211 93.9676 21.9736 92.2395 21.9736C88.6656 21.9736 85.5085 19.1192 85.5085 14.6996C85.5085 10.1971 88.6656 7.33925 92.2395 7.33925C93.9652 7.33925 95.6351 8.0593 96.319 9.3517V0H100.428V21.6731V21.6728ZM96.2295 14.6117C96.2295 12.5086 94.7113 11.2759 93.0144 11.2759C91.2566 11.2759 89.7966 12.598 89.7966 14.6117C89.7966 16.6897 91.2566 18.0057 93.0132 18.0057C94.7425 18.0082 96.2295 16.6254 96.2295 14.6117Z" fill="#333333"/>
<path id="Vector_5" d="M75.3488 14.2492C75.3488 12.1167 76.4513 11.3951 77.9097 11.3951C79.3088 11.3951 80.3221 12.3263 80.3221 14.1883V21.6706H84.4609V13.2884C84.4609 9.29348 82.4944 7.33925 79.3673 7.33925C77.7299 7.33925 76.0925 8.27071 75.3473 9.68323V7.64228H71.2109V21.6706H75.3488V14.2492ZM62.8066 21.9114C58.876 21.9114 55.5975 19.0276 55.5975 14.6105C55.5975 10.1909 58.8724 7.33557 62.8066 7.33557C66.7408 7.33557 70.0438 10.1909 70.0438 14.6105C70.0438 19.03 66.7368 21.9127 62.8066 21.9127V21.9114ZM62.8066 17.8271C64.5322 17.8271 65.9634 16.5632 65.9634 14.6117C65.9634 12.7184 64.5335 11.426 62.8066 11.426C62.3908 11.4196 61.978 11.4978 61.5934 11.656C61.2088 11.8142 60.8604 12.049 60.5695 12.3462C60.2769 12.6449 60.0473 12.9994 59.8944 13.3885C59.7415 13.7777 59.6684 14.1937 59.6794 14.6117C59.6807 16.5656 61.1094 17.8271 62.8066 17.8271Z" fill="#333333"/>
<path id="Vector_6" d="M48.177 11.3963C49.3974 11.3963 50.4702 12.3584 50.4702 14.1895V21.673H54.579V13.7054C54.579 9.46966 52.5197 7.33679 49.2185 7.33679C48.238 7.33679 46.3904 7.63492 45.0499 9.82968C44.2753 8.20697 42.7868 7.36529 40.5868 7.36529C39.8231 7.36141 39.0743 7.5776 38.4302 7.98801C37.786 8.39841 37.2737 8.98566 36.9544 9.67954V7.6435H32.8131V21.6718H36.9508V14.2492C36.9508 12.1167 38.1126 11.3951 39.3628 11.3951C40.5547 11.3951 41.6249 12.3262 41.6559 14.0991V21.6718H45.7948V14.2492C45.7948 12.2095 46.8672 11.3975 48.177 11.3975V11.3963Z" fill="#333333"/>
</g>
<defs>
<clipPath id="clip0_2_102">
<rect width="156.878" height="29.1082" fill="white" transform="translate(0.647949)"/>
</clipPath>
</defs>
</svg>
