<svg width="89" height="30" viewBox="0 0 89 30" fill="none" xmlns="http://www.w3.org/2000/svg">
<g id="logos:google" clip-path="url(#clip0_2_110)">
<path id="Vector" d="M85.9475 18.0445L88.4086 19.6852C87.6098 20.8616 85.6994 22.8801 82.3965 22.8801C78.295 22.8801 75.2406 19.7068 75.2406 15.67C75.2406 11.3742 78.3274 8.45996 82.0512 8.45996C85.7965 8.45996 87.6313 11.4389 88.2251 13.0471L88.5489 13.8675L78.8995 17.861C79.6335 19.3075 80.7777 20.0414 82.3965 20.0414C84.0157 20.0414 85.1381 19.2427 85.9475 18.0445ZM78.3815 15.4435L84.8251 12.7666C84.4689 11.8708 83.4113 11.2341 82.1482 11.2341C80.5402 11.2341 78.3059 12.6588 78.3815 15.4435Z" fill="#FF302F"/>
<path id="Vector_2" d="M70.5886 1.10961H73.697V22.2217H70.5886V1.10944V1.10961Z" fill="#20B15A"/>
<path id="Vector_3" d="M65.6884 9.02116H68.689V21.8438C68.689 27.1649 65.5481 29.356 61.835 29.356C58.3381 29.356 56.2334 27.0031 55.4454 25.0927L58.1977 23.9485C58.6941 25.1249 59.8922 26.5175 61.835 26.5175C64.2203 26.5175 65.6884 25.0386 65.6884 22.2756V21.2395H65.5805C64.868 22.1029 63.5081 22.88 61.7811 22.88C58.1761 22.88 54.8731 19.739 54.8731 15.6916C54.8731 11.6224 58.1761 8.44922 61.7811 8.44922C63.4973 8.44922 64.868 9.21556 65.5805 10.0574H65.6884V9.02133V9.02116ZM65.9041 15.6916C65.9041 13.1443 64.2096 11.2878 62.0509 11.2878C59.8706 11.2878 58.0357 13.1443 58.0357 15.6916C58.0357 18.2064 59.8706 20.0305 62.0509 20.0305C64.2098 20.0414 65.9043 18.2064 65.9043 15.6916H65.9041Z" fill="#3686F7"/>
<path id="Vector_4" d="M37.8088 15.6376C37.8088 19.7931 34.5709 22.8476 30.5988 22.8476C26.6269 22.8476 23.3888 19.7824 23.3888 15.6376C23.3888 11.4605 26.6269 8.41681 30.5988 8.41681C34.5709 8.41681 37.8088 11.4605 37.8088 15.6376ZM34.6572 15.6376C34.6572 13.0473 32.779 11.2661 30.5988 11.2661C28.4187 11.2661 26.5405 13.0473 26.5405 15.6376C26.5405 18.2064 28.4187 20.009 30.5988 20.009C32.7792 20.009 34.6572 18.2064 34.6572 15.6376Z" fill="#FF302F"/>
<path id="Vector_5" d="M53.5565 15.67C53.5565 19.8255 50.3184 22.88 46.3465 22.88C42.3744 22.88 39.1365 19.8253 39.1365 15.67C39.1365 11.4929 42.3744 8.45996 46.3465 8.45996C50.3184 8.45996 53.5565 11.4822 53.5565 15.67ZM50.3939 15.67C50.3939 13.0797 48.5159 11.2985 46.3356 11.2985C44.1554 11.2985 42.2772 13.0797 42.2772 15.67C42.2772 18.2388 44.1554 20.0414 46.3356 20.0414C48.5267 20.0414 50.3939 18.228 50.3939 15.67Z" fill="#FFBA40"/>
<path id="Vector_6" d="M11.5376 19.7176C7.01508 19.7176 3.47497 16.0693 3.47497 11.5468C3.47497 7.02447 7.01508 3.37625 11.5376 3.37625C13.977 3.37625 15.7578 4.33682 17.0746 5.56733L19.2442 3.3979C17.4093 1.63859 14.9592 0.299957 11.5376 0.299957C5.34222 0.300131 0.128906 5.35162 0.128906 11.5468C0.128906 17.7424 5.34222 22.7937 11.5376 22.7937C14.8837 22.7937 17.4093 21.6928 19.3845 19.642C21.4136 17.6128 22.0396 14.7633 22.0396 12.4535C22.0396 11.7303 21.9533 10.9856 21.8561 10.4352H11.5376V13.4357H18.8879C18.6721 15.3139 18.0785 16.5983 17.2042 17.4724C16.1464 18.5411 14.4735 19.7176 11.5376 19.7176Z" fill="#3686F7"/>
</g>
<defs>
<clipPath id="clip0_2_110">
<rect width="88.7107" height="29.1082" fill="white" transform="translate(0 0.255249)"/>
</clipPath>
</defs>
</svg>
